<svg width="19" height="21" viewBox="0 0 19 21" fill="none" xmlns="http://www.w3.org/2000/svg">
<path d="M17.5 13.5V3.08333C17.5 2.5308 17.3068 2.00089 16.963 1.61019C16.6192 1.21949 16.1529 1 15.6667 1H2.83333C2.3471 1 1.88079 1.21949 1.53697 1.61019C1.19315 2.00089 1 2.5308 1 3.08333V17.6667C1 18.2192 1.19315 18.7491 1.53697 19.1398C1.88079 19.5305 2.3471 19.75 2.83333 19.75H12M17.5 13.5V13.6792C17.4999 14.2317 17.3067 14.7615 16.9628 15.1521L13.4538 19.1396C13.1101 19.5303 12.6439 19.7499 12.1577 19.75H12M17.5 13.5H13.8333C13.3471 13.5 12.8808 13.7195 12.537 14.1102C12.1932 14.5009 12 15.0308 12 15.5833V19.75M4.66667 5.16667H13.8333M4.66667 9.33333H13.8333M4.66667 13.5H8.33333" stroke="black" stroke-width="1.5" stroke-linecap="round" stroke-linejoin="round"/>
</svg>
